<?xml version="1.0" encoding="UTF-8" standalone="no"?>
<svg
   width="32"
   height="16"
   viewBox="0 0 32 16"
   id="svg4140"
   version="1.1"
   inkscape:version="1.1.1 (3bf5ae0d25, 2021-09-20)"
   sodipodi:docname="switch-on.svg"
   xmlns:inkscape="http://www.inkscape.org/namespaces/inkscape"
   xmlns:sodipodi="http://sodipodi.sourceforge.net/DTD/sodipodi-0.dtd"
   xmlns="http://www.w3.org/2000/svg"
   xmlns:svg="http://www.w3.org/2000/svg"
   xmlns:rdf="http://www.w3.org/1999/02/22-rdf-syntax-ns#"
   xmlns:cc="http://creativecommons.org/ns#"
   xmlns:dc="http://purl.org/dc/elements/1.1/">
  <defs
     id="defs4142" />
  <sodipodi:namedview
     id="base"
     pagecolor="#ffffff"
     bordercolor="#666666"
     borderopacity="1.0"
     inkscape:pageopacity="0.0"
     inkscape:pageshadow="2"
     inkscape:zoom="15.839192"
     inkscape:cx="8.2706239"
     inkscape:cy="1.1364216"
     inkscape:document-units="px"
     inkscape:current-layer="layer1"
     showgrid="false"
     units="px"
     inkscape:window-width="1920"
     inkscape:window-height="996"
     inkscape:window-x="0"
     inkscape:window-y="0"
     inkscape:window-maximized="1"
     inkscape:document-rotation="0"
     inkscape:pagecheckerboard="0">
    <inkscape:grid
       type="xygrid"
       id="grid4688" />
  </sodipodi:namedview>
  <metadata
     id="metadata4145">
    <rdf:RDF>
      <cc:Work
         rdf:about="">
        <dc:format>image/svg+xml</dc:format>
        <dc:type
           rdf:resource="http://purl.org/dc/dcmitype/StillImage" />
      </cc:Work>
    </rdf:RDF>
  </metadata>
  <g
     inkscape:label="Layer 1"
     inkscape:groupmode="layer"
     id="layer1"
     transform="translate(0,-1036.3622)">
    <path
       id="path1011"
       style="opacity:1;fill:#ffffff;fill-opacity:1;stroke-width:1.32612"
       d="m 29.080078,1036.3622 c 1.617332,0 2.919922,1.3026 2.919922,2.9199 v 10.1602 c 0,1.6173 -1.30259,2.9199 -2.919922,2.9199 H 2.919922 C 1.30259,1052.3622 0,1051.0596 0,1049.4423 v -10.1602 c 0,-1.6173 1.30259,-2.9199 2.919922,-2.9199 z m -0.816406,1 H 3.736328 c -0.09476,0 -0.187066,0 -0.279297,0.014 -0.09223,0.01 -0.184194,0.02 -0.273437,0.037 -0.08924,0.017 -0.175914,0.04 -0.261719,0.064 -0.08581,0.025 -0.170038,0.052 -0.251953,0.084 -0.08191,0.032 -0.162662,0.068 -0.240234,0.1074 -0.07757,0.039 -0.151831,0.083 -0.22461,0.1289 -0.07278,0.046 -0.143403,0.095 -0.210937,0.1465 -0.06753,0.052 -0.131523,0.1064 -0.19336,0.1641 -0.06184,0.058 -0.122046,0.1186 -0.177734,0.1816 -0.05569,0.063 -0.107162,0.1294 -0.15625,0.1973 -0.04909,0.068 -0.09468,0.1366 -0.136719,0.209 -0.04204,0.072 -0.0807,0.1481 -0.115234,0.2246 -0.03453,0.076 -0.06522,0.1543 -0.0918,0.2344 -0.02658,0.08 -0.05019,0.1628 -0.06836,0.2461 -0.01817,0.083 -0.03171,0.1678 -0.04102,0.2539 C 1.004361,1039.7413 1,1039.8284 1,1039.9169 v 8.8906 c 0,0.089 0.0044,0.1757 0.01367,0.2617 0.0093,0.086 0.02285,0.1706 0.04102,0.2539 0.01817,0.083 0.04178,0.166 0.06836,0.2461 0.02658,0.08 0.05727,0.158 0.0918,0.2344 0.03453,0.077 0.0732,0.1522 0.115234,0.2246 0.04204,0.072 0.08763,0.1411 0.136719,0.209 0.04909,0.068 0.100562,0.1342 0.15625,0.1973 0.05569,0.063 0.115897,0.1239 0.177734,0.1816 0.06184,0.058 0.125826,0.1121 0.19336,0.1641 0.06753,0.052 0.138158,0.1006 0.210937,0.1465 0.07278,0.046 0.147037,0.09 0.22461,0.1289 0.07757,0.039 0.158319,0.075 0.240234,0.1074 0.08191,0.032 0.166148,0.059 0.251953,0.084 0.08581,0.025 0.172475,0.047 0.261719,0.064 0.08924,0.017 0.181207,0.028 0.273437,0.037 0.092225,0.01 0.184526,0.014 0.279291,0.014 h 24.527344 c 0.09477,0 0.187066,-0.01 0.279297,-0.014 0.09223,-0.01 0.184194,-0.02 0.273437,-0.037 0.08924,-0.017 0.175914,-0.04 0.261719,-0.064 0.08581,-0.025 0.170038,-0.052 0.251953,-0.084 0.08191,-0.032 0.162661,-0.068 0.240234,-0.1074 0.07757,-0.039 0.15183,-0.083 0.22461,-0.1289 0.07278,-0.046 0.143403,-0.095 0.210937,-0.1465 0.06753,-0.052 0.131523,-0.1064 0.19336,-0.1641 0.06184,-0.058 0.122046,-0.1186 0.177734,-0.1816 0.05569,-0.063 0.107162,-0.1294 0.15625,-0.1973 0.04909,-0.068 0.09468,-0.1366 0.136719,-0.209 0.04204,-0.072 0.0807,-0.1481 0.115234,-0.2246 0.03453,-0.076 0.06522,-0.1543 0.0918,-0.2344 0.02658,-0.08 0.05019,-0.1628 0.06836,-0.2461 0.01817,-0.083 0.0317,-0.1678 0.04102,-0.2539 0.0093,-0.086 0.01367,-0.1732 0.01367,-0.2617 v -8.8906 c 0,-0.088 -0.0044,-0.1756 -0.01367,-0.2617 -0.0093,-0.086 -0.02285,-0.1706 -0.04102,-0.2539 -0.01817,-0.083 -0.04178,-0.166 -0.06836,-0.2461 -0.02658,-0.08 -0.05727,-0.158 -0.0918,-0.2344 -0.03453,-0.077 -0.0732,-0.1522 -0.115234,-0.2246 -0.04204,-0.072 -0.08763,-0.1411 -0.136719,-0.209 -0.04909,-0.068 -0.100562,-0.1342 -0.15625,-0.1973 -0.05569,-0.063 -0.115897,-0.1239 -0.177734,-0.1816 -0.06184,-0.058 -0.125826,-0.1121 -0.19336,-0.1641 -0.06753,-0.052 -0.138158,-0.1006 -0.210937,-0.1465 -0.07278,-0.046 -0.147037,-0.09 -0.22461,-0.1289 -0.07757,-0.039 -0.158319,-0.075 -0.240234,-0.1074 -0.08191,-0.032 -0.166148,-0.059 -0.251953,-0.084 -0.08581,-0.025 -0.172475,-0.047 -0.261719,-0.064 -0.08924,-0.017 -0.181207,-0.028 -0.273437,-0.037 -0.09223,-0.01 -0.184532,-0.014 -0.279297,-0.014 z" />
    <rect
       style="opacity:1;fill:#ffffff;stroke-width:0.34885"
       id="rect946-3"
       width="12"
       height="12"
       x="-30"
       y="1038.3622"
       rx="2.0914888"
       ry="2.0914888"
       transform="scale(-1,1)" />
  </g>
</svg>
