<?xml version="1.0" encoding="UTF-8" standalone="no"?>
<svg
   width="32"
   height="16"
   viewBox="0 0 32 16"
   id="svg4140"
   version="1.1"
   inkscape:version="1.1.1 (3bf5ae0d25, 2021-09-20)"
   sodipodi:docname="switch-off.svg"
   xmlns:inkscape="http://www.inkscape.org/namespaces/inkscape"
   xmlns:sodipodi="http://sodipodi.sourceforge.net/DTD/sodipodi-0.dtd"
   xmlns="http://www.w3.org/2000/svg"
   xmlns:svg="http://www.w3.org/2000/svg"
   xmlns:rdf="http://www.w3.org/1999/02/22-rdf-syntax-ns#"
   xmlns:cc="http://creativecommons.org/ns#"
   xmlns:dc="http://purl.org/dc/elements/1.1/">
  <defs
     id="defs4142" />
  <sodipodi:namedview
     id="base"
     pagecolor="#ffffff"
     bordercolor="#666666"
     borderopacity="1.0"
     inkscape:pageopacity="0.0"
     inkscape:pageshadow="2"
     inkscape:zoom="15.839192"
     inkscape:cx="-19.508571"
     inkscape:cy="1.1364216"
     inkscape:document-units="px"
     inkscape:current-layer="layer1"
     showgrid="false"
     units="px"
     inkscape:window-width="1920"
     inkscape:window-height="996"
     inkscape:window-x="0"
     inkscape:window-y="0"
     inkscape:window-maximized="1"
     inkscape:document-rotation="0"
     inkscape:pagecheckerboard="0">
    <inkscape:grid
       type="xygrid"
       id="grid4688" />
  </sodipodi:namedview>
  <metadata
     id="metadata4145">
    <rdf:RDF>
      <cc:Work
         rdf:about="">
        <dc:format>image/svg+xml</dc:format>
        <dc:type
           rdf:resource="http://purl.org/dc/dcmitype/StillImage" />
      </cc:Work>
    </rdf:RDF>
  </metadata>
  <g
     inkscape:label="Layer 1"
     inkscape:groupmode="layer"
     id="layer1"
     transform="translate(0,-1036.3622)">
    <path
       id="path1011"
       style="opacity:1;fill:#ffffff;fill-opacity:1;stroke-width:1.32612"
       d="M 2.9199219,0 C 1.3025903,0 0,1.3025903 0,2.9199219 V 13.080078 C 0,14.69741 1.3025903,16 2.9199219,16 H 29.080078 C 30.69741,16 32,14.69741 32,13.080078 V 2.9199219 C 32,1.3025903 30.69741,0 29.080078,0 Z M 3.7363281,1 H 28.263672 c 0.09476,0 0.187066,0.00498 0.279297,0.013672 0.09223,0.00869 0.184194,0.020151 0.273437,0.037109 0.08924,0.016958 0.175914,0.039648 0.261719,0.064453 0.08581,0.024805 0.170038,0.051754 0.251953,0.083984 0.08191,0.03223 0.162662,0.068188 0.240234,0.1074218 0.07757,0.039234 0.151831,0.083091 0.22461,0.1289063 0.07278,0.045815 0.143403,0.094508 0.210937,0.1464843 0.06753,0.051976 0.131523,0.1063479 0.19336,0.1640626 0.06184,0.057715 0.122046,0.1186088 0.177734,0.1816406 0.05569,0.063032 0.107162,0.1293382 0.15625,0.1972656 0.04909,0.067927 0.09468,0.1365829 0.136719,0.2089844 0.04204,0.072401 0.0807,0.1481555 0.115234,0.2246094 0.03453,0.076454 0.06522,0.1542902 0.0918,0.234375 0.02658,0.080085 0.05019,0.1627997 0.06836,0.2460937 0.01817,0.083294 0.03171,0.1678245 0.04102,0.2539063 C 30.995639,3.3790505 31,3.4662397 31,3.5546875 v 8.8906245 c 0,0.08845 -0.0044,0.175638 -0.01367,0.261719 -0.0093,0.08608 -0.02285,0.170612 -0.04102,0.253907 -0.01817,0.08329 -0.04178,0.166009 -0.06836,0.246093 -0.02658,0.08008 -0.05727,0.157921 -0.0918,0.234375 -0.03453,0.07645 -0.0732,0.152208 -0.115234,0.22461 -0.04204,0.0724 -0.08763,0.141057 -0.136719,0.208984 -0.04909,0.06793 -0.100562,0.134234 -0.15625,0.197266 -0.05569,0.06303 -0.115897,0.123926 -0.177734,0.18164 -0.06184,0.05771 -0.125826,0.112087 -0.19336,0.164063 -0.06753,0.05198 -0.138158,0.100669 -0.210937,0.146484 -0.07278,0.04582 -0.147037,0.08967 -0.22461,0.128906 -0.07757,0.03923 -0.158319,0.07519 -0.240234,0.107422 -0.08191,0.03223 -0.166148,0.05918 -0.251953,0.08399 -0.08581,0.0248 -0.172475,0.04749 -0.261719,0.06445 -0.08924,0.01696 -0.181207,0.02842 -0.273437,0.03711 C 28.450738,14.995018 28.358437,15 28.263672,15 H 3.7363281 C 3.6415621,15 3.5492617,14.995 3.4570312,14.98633 3.3648012,14.97763 3.2728373,14.96618 3.1835938,14.94922 3.0943498,14.93226 3.0076801,14.90957 2.921875,14.88477 2.83607,14.85996 2.7518367,14.83302 2.6699219,14.80078 2.5880069,14.76855 2.5072605,14.73259 2.4296875,14.693358 c -0.077573,-0.03923 -0.15183,-0.08309 -0.2246094,-0.128906 -0.072779,-0.04582 -0.1434034,-0.09451 -0.2109375,-0.146484 -0.067534,-0.05198 -0.1315223,-0.106348 -0.1933594,-0.164063 -0.061837,-0.05771 -0.122046,-0.118609 -0.1777343,-0.18164 -0.055688,-0.06303 -0.107162,-0.129339 -0.15625,-0.197266 -0.049088,-0.06793 -0.094683,-0.136583 -0.1367188,-0.208984 -0.042036,-0.0724 -0.080702,-0.148156 -0.1152343,-0.22461 -0.034532,-0.07645 -0.06522,-0.15429 -0.091797,-0.234375 -0.026577,-0.08008 -0.05019,-0.162799 -0.068359,-0.246093 C 1.0365188,12.877647 1.0229828,12.793112 1.0136718,12.70703 1.0043613,12.62095 1,12.53376 1,12.445312 V 3.5546875 C 1,3.4662395 1.00436,3.3790505 1.013672,3.2929688 1.022982,3.2068868 1.036518,3.1223565 1.054688,3.0390625 1.072857,2.9557685 1.096471,2.8730535 1.123047,2.7929688 1.149624,2.7128838 1.180312,2.6350476 1.214844,2.5585938 1.249376,2.4821398 1.288042,2.4063858 1.3300783,2.3339844 1.372114,2.2615829 1.4177089,2.1929274 1.4667969,2.125 1.5158849,2.0570726 1.5673585,1.9907662 1.6230469,1.9277344 1.6787352,1.8647026 1.7389442,1.8038084 1.8007812,1.7460938 1.8626183,1.6883791 1.9266066,1.6340071 1.9941406,1.5820312 2.0616747,1.5300554 2.1322988,1.4813623 2.2050781,1.4355469 2.2778575,1.3897314 2.3521145,1.3458741 2.4296875,1.3066406 2.5072605,1.2674071 2.588007,1.2314487 2.6699219,1.1992188 c 0.081915,-0.03223 0.166148,-0.05918 0.2519531,-0.083984 0.085805,-0.024805 0.1724752,-0.047495 0.2617188,-0.064453 0.089243,-0.016958 0.181207,-0.02842 0.2734374,-0.037109 C 3.5492617,1.004982 3.6415626,1 3.7363281,1 Z"
       transform="translate(0,1036.3622)" />
    <rect
       style="opacity:1;fill:#ffffff;stroke-width:0.34885"
       id="rect946-3"
       width="12"
       height="12"
       x="2"
       y="1038.3622"
       rx="2.0914888"
       ry="2.0914888" />
  </g>
</svg>
